<mxfile host="app.diagrams.net" agent="Mozilla/5.0 (Windows NT 10.0; Win64; x64) AppleWebKit/537.36 (KHTML, like Gecko) Chrome/139.0.0.0 Safari/537.36 Edg/139.0.0.0" version="28.1.2">
  <diagram name="Сторінка-1" id="PQYsR_r2_CBOMvW_Ew5F">
    <mxGraphModel dx="1723" dy="950" grid="1" gridSize="10" guides="1" tooltips="1" connect="1" arrows="1" fold="1" page="1" pageScale="1" pageWidth="827" pageHeight="1169" math="0" shadow="0">
      <root>
        <mxCell id="0" />
        <mxCell id="1" parent="0" />
        <mxCell id="TpFpubLwq7ur8zdKTFZ--2" style="edgeStyle=orthogonalEdgeStyle;rounded=0;orthogonalLoop=1;jettySize=auto;html=1;exitX=1;exitY=0;exitDx=0;exitDy=0;entryX=0;entryY=0;entryDx=0;entryDy=0;" parent="1" source="TpFpubLwq7ur8zdKTFZ--1" target="TpFpubLwq7ur8zdKTFZ--1" edge="1">
          <mxGeometry relative="1" as="geometry">
            <mxPoint x="350" y="190" as="targetPoint" />
            <Array as="points">
              <mxPoint x="480" y="100" />
              <mxPoint x="360" y="100" />
            </Array>
          </mxGeometry>
        </mxCell>
        <mxCell id="TpFpubLwq7ur8zdKTFZ--1" value="NAME&lt;div&gt;&lt;br&gt;&lt;/div&gt;" style="rounded=1;whiteSpace=wrap;html=1;" parent="1" vertex="1">
          <mxGeometry x="360" y="50" width="120" height="60" as="geometry" />
        </mxCell>
        <mxCell id="OdcI3gRrXHKPdvEFt8rG-5" value="Field&amp;nbsp;&lt;div&gt;-value&lt;/div&gt;" style="rounded=1;whiteSpace=wrap;html=1;fontSize=15;" vertex="1" parent="1">
          <mxGeometry x="70" y="50" width="150" height="60" as="geometry" />
        </mxCell>
        <mxCell id="OdcI3gRrXHKPdvEFt8rG-6" value="Phone&lt;div&gt;-value&lt;/div&gt;" style="rounded=0;whiteSpace=wrap;html=1;labelPosition=center;verticalLabelPosition=middle;align=center;verticalAlign=middle;" vertex="1" parent="1">
          <mxGeometry x="630" y="50" width="140" height="60" as="geometry" />
        </mxCell>
        <mxCell id="OdcI3gRrXHKPdvEFt8rG-9" value="Birthday&lt;div&gt;-value&lt;/div&gt;" style="rounded=1;whiteSpace=wrap;html=1;fontSize=15;" vertex="1" parent="1">
          <mxGeometry x="70" y="190" width="150" height="60" as="geometry" />
        </mxCell>
        <mxCell id="OdcI3gRrXHKPdvEFt8rG-10" value="Record&lt;div&gt;- name: Name&lt;/div&gt;&lt;div&gt;-phones: []&lt;/div&gt;&lt;div&gt;-birthday&lt;/div&gt;" style="rounded=1;whiteSpace=wrap;html=1;fontSize=15;" vertex="1" parent="1">
          <mxGeometry x="70" y="310" width="160" height="90" as="geometry" />
        </mxCell>
        <mxCell id="OdcI3gRrXHKPdvEFt8rG-11" value="+add_phone()&lt;div&gt;+change_phone()&lt;/div&gt;&lt;div&gt;+add_birthday()&lt;/div&gt;" style="rounded=1;whiteSpace=wrap;html=1;fontSize=15;" vertex="1" parent="1">
          <mxGeometry x="70" y="400" width="160" height="80" as="geometry" />
        </mxCell>
        <mxCell id="OdcI3gRrXHKPdvEFt8rG-12" value="AddressBook&lt;div&gt;-records&lt;/div&gt;" style="rounded=1;whiteSpace=wrap;html=1;fontSize=15;" vertex="1" parent="1">
          <mxGeometry x="70" y="530" width="170" height="75" as="geometry" />
        </mxCell>
        <mxCell id="OdcI3gRrXHKPdvEFt8rG-13" value="+add_record()&lt;div&gt;+get_upcoming_birthday()&lt;/div&gt;" style="rounded=1;whiteSpace=wrap;html=1;fontSize=14;" vertex="1" parent="1">
          <mxGeometry x="70" y="605" width="170" height="80" as="geometry" />
        </mxCell>
        <mxCell id="OdcI3gRrXHKPdvEFt8rG-14" value="View (ABC)&lt;div&gt;+show_message()&lt;/div&gt;&lt;div&gt;+show_contacts()&lt;/div&gt;" style="rounded=1;whiteSpace=wrap;html=1;" vertex="1" parent="1">
          <mxGeometry x="70" y="730" width="170" height="90" as="geometry" />
        </mxCell>
        <mxCell id="OdcI3gRrXHKPdvEFt8rG-15" value="ConsoleView&lt;div&gt;+show_message()&lt;/div&gt;&lt;div&gt;+show_contacts&lt;/div&gt;" style="rounded=1;whiteSpace=wrap;html=1;" vertex="1" parent="1">
          <mxGeometry x="80" y="880" width="160" height="80" as="geometry" />
        </mxCell>
        <mxCell id="OdcI3gRrXHKPdvEFt8rG-16" value="" style="endArrow=classic;html=1;rounded=0;exitX=0;exitY=0.5;exitDx=0;exitDy=0;" edge="1" parent="1" source="TpFpubLwq7ur8zdKTFZ--1">
          <mxGeometry width="50" height="50" relative="1" as="geometry">
            <mxPoint x="390" y="250" as="sourcePoint" />
            <mxPoint x="240" y="80" as="targetPoint" />
            <Array as="points">
              <mxPoint x="290" y="80" />
            </Array>
          </mxGeometry>
        </mxCell>
        <mxCell id="OdcI3gRrXHKPdvEFt8rG-18" value="" style="endArrow=classic;html=1;rounded=0;" edge="1" parent="1">
          <mxGeometry width="50" height="50" relative="1" as="geometry">
            <mxPoint x="140" y="180" as="sourcePoint" />
            <mxPoint x="140" y="120" as="targetPoint" />
          </mxGeometry>
        </mxCell>
        <mxCell id="OdcI3gRrXHKPdvEFt8rG-19" value="" style="endArrow=classic;html=1;rounded=0;exitX=0.5;exitY=0;exitDx=0;exitDy=0;" edge="1" parent="1" source="OdcI3gRrXHKPdvEFt8rG-15">
          <mxGeometry width="50" height="50" relative="1" as="geometry">
            <mxPoint x="150" y="840" as="sourcePoint" />
            <mxPoint x="160" y="830" as="targetPoint" />
            <Array as="points">
              <mxPoint x="160" y="850" />
            </Array>
          </mxGeometry>
        </mxCell>
      </root>
    </mxGraphModel>
  </diagram>
</mxfile>
